%TF.GenerationSoftware,KiCad,Pcbnew,(6.0.10)*%
%TF.CreationDate,2023-03-03T00:15:28-08:00*%
%TF.ProjectId,ex 1,65782031-2e6b-4696-9361-645f70636258,rev?*%
%TF.SameCoordinates,Original*%
%TF.FileFunction,Legend,Top*%
%TF.FilePolarity,Positive*%
%FSLAX46Y46*%
G04 Gerber Fmt 4.6, Leading zero omitted, Abs format (unit mm)*
G04 Created by KiCad (PCBNEW (6.0.10)) date 2023-03-03 00:15:28*
%MOMM*%
%LPD*%
G01*
G04 APERTURE LIST*
%ADD10C,0.150000*%
%ADD11C,0.120000*%
G04 APERTURE END LIST*
D10*
%TO.C,R1*%
X136993333Y-92972380D02*
X136660000Y-92496190D01*
X136421904Y-92972380D02*
X136421904Y-91972380D01*
X136802857Y-91972380D01*
X136898095Y-92020000D01*
X136945714Y-92067619D01*
X136993333Y-92162857D01*
X136993333Y-92305714D01*
X136945714Y-92400952D01*
X136898095Y-92448571D01*
X136802857Y-92496190D01*
X136421904Y-92496190D01*
X137945714Y-92972380D02*
X137374285Y-92972380D01*
X137660000Y-92972380D02*
X137660000Y-91972380D01*
X137564761Y-92115238D01*
X137469523Y-92210476D01*
X137374285Y-92258095D01*
%TO.C,SW1*%
X156646666Y-79209761D02*
X156789523Y-79257380D01*
X157027619Y-79257380D01*
X157122857Y-79209761D01*
X157170476Y-79162142D01*
X157218095Y-79066904D01*
X157218095Y-78971666D01*
X157170476Y-78876428D01*
X157122857Y-78828809D01*
X157027619Y-78781190D01*
X156837142Y-78733571D01*
X156741904Y-78685952D01*
X156694285Y-78638333D01*
X156646666Y-78543095D01*
X156646666Y-78447857D01*
X156694285Y-78352619D01*
X156741904Y-78305000D01*
X156837142Y-78257380D01*
X157075238Y-78257380D01*
X157218095Y-78305000D01*
X157551428Y-78257380D02*
X157789523Y-79257380D01*
X157980000Y-78543095D01*
X158170476Y-79257380D01*
X158408571Y-78257380D01*
X159313333Y-79257380D02*
X158741904Y-79257380D01*
X159027619Y-79257380D02*
X159027619Y-78257380D01*
X158932380Y-78400238D01*
X158837142Y-78495476D01*
X158741904Y-78543095D01*
%TO.C,R2*%
X136993333Y-82852380D02*
X136660000Y-82376190D01*
X136421904Y-82852380D02*
X136421904Y-81852380D01*
X136802857Y-81852380D01*
X136898095Y-81900000D01*
X136945714Y-81947619D01*
X136993333Y-82042857D01*
X136993333Y-82185714D01*
X136945714Y-82280952D01*
X136898095Y-82328571D01*
X136802857Y-82376190D01*
X136421904Y-82376190D01*
X137374285Y-81947619D02*
X137421904Y-81900000D01*
X137517142Y-81852380D01*
X137755238Y-81852380D01*
X137850476Y-81900000D01*
X137898095Y-81947619D01*
X137945714Y-82042857D01*
X137945714Y-82138095D01*
X137898095Y-82280952D01*
X137326666Y-82852380D01*
X137945714Y-82852380D01*
%TO.C,D1*%
X132902046Y-98308111D02*
X131902046Y-98308111D01*
X131902046Y-98070016D01*
X131949666Y-97927158D01*
X132044904Y-97831920D01*
X132140142Y-97784301D01*
X132330618Y-97736682D01*
X132473475Y-97736682D01*
X132663951Y-97784301D01*
X132759189Y-97831920D01*
X132854427Y-97927158D01*
X132902046Y-98070016D01*
X132902046Y-98308111D01*
X132902046Y-96784301D02*
X132902046Y-97355730D01*
X132902046Y-97070016D02*
X131902046Y-97070016D01*
X132044904Y-97165254D01*
X132140142Y-97260492D01*
X132187761Y-97355730D01*
%TO.C,C1*%
X146103333Y-100627142D02*
X146055714Y-100674761D01*
X145912857Y-100722380D01*
X145817619Y-100722380D01*
X145674761Y-100674761D01*
X145579523Y-100579523D01*
X145531904Y-100484285D01*
X145484285Y-100293809D01*
X145484285Y-100150952D01*
X145531904Y-99960476D01*
X145579523Y-99865238D01*
X145674761Y-99770000D01*
X145817619Y-99722380D01*
X145912857Y-99722380D01*
X146055714Y-99770000D01*
X146103333Y-99817619D01*
X147055714Y-100722380D02*
X146484285Y-100722380D01*
X146770000Y-100722380D02*
X146770000Y-99722380D01*
X146674761Y-99865238D01*
X146579523Y-99960476D01*
X146484285Y-100008095D01*
%TO.C,J1*%
X126216666Y-93372380D02*
X126216666Y-94086666D01*
X126169047Y-94229523D01*
X126073809Y-94324761D01*
X125930952Y-94372380D01*
X125835714Y-94372380D01*
X127216666Y-94372380D02*
X126645238Y-94372380D01*
X126930952Y-94372380D02*
X126930952Y-93372380D01*
X126835714Y-93515238D01*
X126740476Y-93610476D01*
X126645238Y-93658095D01*
D11*
%TO.C,R1*%
X128440000Y-88900000D02*
X129290000Y-88900000D01*
X129290000Y-91520000D02*
X145030000Y-91520000D01*
X129290000Y-86280000D02*
X129290000Y-91520000D01*
X145880000Y-88900000D02*
X145030000Y-88900000D01*
X145030000Y-86280000D02*
X129290000Y-86280000D01*
X145030000Y-91520000D02*
X145030000Y-86280000D01*
%TO.C,SW1*%
X162930000Y-86355000D02*
X153030000Y-86355000D01*
X150680000Y-80005000D02*
X150680000Y-78705000D01*
X153030000Y-79655000D02*
X162930000Y-79655000D01*
X164980000Y-80405000D02*
X164980000Y-85605000D01*
X150680000Y-78705000D02*
X151980000Y-78705000D01*
X150980000Y-85605000D02*
X150980000Y-80405000D01*
%TO.C,R2*%
X129290000Y-81400000D02*
X145030000Y-81400000D01*
X145880000Y-78780000D02*
X145030000Y-78780000D01*
X129290000Y-76160000D02*
X129290000Y-81400000D01*
X145030000Y-81400000D02*
X145030000Y-76160000D01*
X128440000Y-78780000D02*
X129290000Y-78780000D01*
X145030000Y-76160000D02*
X129290000Y-76160000D01*
%TO.C,D1*%
X134864666Y-100130016D02*
X137954666Y-100130016D01*
X136410128Y-94580016D02*
G75*
G03*
X134864836Y-100130016I-462J-2990000D01*
G01*
X137954496Y-100130016D02*
G75*
G03*
X136409204Y-94580016I-1544830J2560000D01*
G01*
X138909666Y-97570016D02*
G75*
G03*
X138909666Y-97570016I-2500000J0D01*
G01*
%TO.C,C1*%
X148890000Y-96520000D02*
G75*
G03*
X148890000Y-96520000I-2620000J0D01*
G01*
%TO.C,J1*%
X126050000Y-95620000D02*
X124100000Y-95620000D01*
X123490000Y-95010000D02*
X123490000Y-99730000D01*
X126450000Y-99120000D02*
X126450000Y-98620000D01*
X126050000Y-95010000D02*
X126050000Y-95620000D01*
X129000000Y-95620000D02*
X127050000Y-95620000D01*
X123190000Y-94710000D02*
X123190000Y-95960000D01*
X126550000Y-99120000D02*
X126550000Y-98620000D01*
X125250000Y-95010000D02*
X125250000Y-94810000D01*
X129000000Y-99120000D02*
X129000000Y-95620000D01*
X123490000Y-99730000D02*
X129610000Y-99730000D01*
X129610000Y-97620000D02*
X129000000Y-97620000D01*
X124950000Y-94810000D02*
X124950000Y-95010000D01*
X123490000Y-97620000D02*
X124100000Y-97620000D01*
X125250000Y-94810000D02*
X124950000Y-94810000D01*
X124440000Y-94710000D02*
X123190000Y-94710000D01*
X127050000Y-95620000D02*
X127050000Y-95010000D01*
X129610000Y-99730000D02*
X129610000Y-95010000D01*
X125250000Y-94910000D02*
X124950000Y-94910000D01*
X129610000Y-95010000D02*
X123490000Y-95010000D01*
X126450000Y-98620000D02*
X126650000Y-98620000D01*
X124100000Y-99120000D02*
X129000000Y-99120000D01*
X124100000Y-95620000D02*
X124100000Y-99120000D01*
X129610000Y-96320000D02*
X129000000Y-96320000D01*
X126650000Y-98620000D02*
X126650000Y-99120000D01*
X123490000Y-96320000D02*
X124100000Y-96320000D01*
%TD*%
M02*
