%TF.GenerationSoftware,KiCad,Pcbnew,(6.0.10)*%
%TF.CreationDate,2023-03-03T00:15:28-08:00*%
%TF.ProjectId,ex 1,65782031-2e6b-4696-9361-645f70636258,rev?*%
%TF.SameCoordinates,Original*%
%TF.FileFunction,Copper,L1,Top*%
%TF.FilePolarity,Positive*%
%FSLAX46Y46*%
G04 Gerber Fmt 4.6, Leading zero omitted, Abs format (unit mm)*
G04 Created by KiCad (PCBNEW (6.0.10)) date 2023-03-03 00:15:28*
%MOMM*%
%LPD*%
G01*
G04 APERTURE LIST*
G04 Aperture macros list*
%AMRoundRect*
0 Rectangle with rounded corners*
0 $1 Rounding radius*
0 $2 $3 $4 $5 $6 $7 $8 $9 X,Y pos of 4 corners*
0 Add a 4 corners polygon primitive as box body*
4,1,4,$2,$3,$4,$5,$6,$7,$8,$9,$2,$3,0*
0 Add four circle primitives for the rounded corners*
1,1,$1+$1,$2,$3*
1,1,$1+$1,$4,$5*
1,1,$1+$1,$6,$7*
1,1,$1+$1,$8,$9*
0 Add four rect primitives between the rounded corners*
20,1,$1+$1,$2,$3,$4,$5,0*
20,1,$1+$1,$4,$5,$6,$7,0*
20,1,$1+$1,$6,$7,$8,$9,0*
20,1,$1+$1,$8,$9,$2,$3,0*%
G04 Aperture macros list end*
%TA.AperFunction,ComponentPad*%
%ADD10C,2.400000*%
%TD*%
%TA.AperFunction,ComponentPad*%
%ADD11O,2.400000X2.400000*%
%TD*%
%TA.AperFunction,ComponentPad*%
%ADD12C,2.000000*%
%TD*%
%TA.AperFunction,ComponentPad*%
%ADD13C,1.700000*%
%TD*%
%TA.AperFunction,ComponentPad*%
%ADD14R,1.800000X1.800000*%
%TD*%
%TA.AperFunction,ComponentPad*%
%ADD15C,1.800000*%
%TD*%
%TA.AperFunction,ComponentPad*%
%ADD16C,1.200000*%
%TD*%
%TA.AperFunction,ComponentPad*%
%ADD17RoundRect,0.250000X-0.350000X-0.625000X0.350000X-0.625000X0.350000X0.625000X-0.350000X0.625000X0*%
%TD*%
%TA.AperFunction,ComponentPad*%
%ADD18O,1.200000X1.750000*%
%TD*%
%TA.AperFunction,Conductor*%
%ADD19C,0.250000*%
%TD*%
G04 APERTURE END LIST*
D10*
%TO.P,R1,1*%
%TO.N,Net-(C1-Pad1)*%
X147320000Y-88900000D03*
D11*
%TO.P,R1,2*%
%TO.N,Net-(D1-Pad2)*%
X127000000Y-88900000D03*
%TD*%
D12*
%TO.P,SW1,*%
%TO.N,*%
X163980000Y-86005000D03*
X151980000Y-86005000D03*
X151980000Y-80005000D03*
X163980000Y-80005000D03*
D13*
%TO.P,SW1,1,A*%
%TO.N,unconnected-(SW1-Pad1)*%
X153980000Y-81755000D03*
%TO.P,SW1,2,B*%
%TO.N,Net-(R2-Pad1)*%
X157980000Y-81755000D03*
%TO.P,SW1,3,C*%
%TO.N,Net-(C1-Pad1)*%
X161980000Y-81755000D03*
%TD*%
D10*
%TO.P,R2,1*%
%TO.N,Net-(R2-Pad1)*%
X147320000Y-78780000D03*
D11*
%TO.P,R2,2*%
%TO.N,+9V*%
X127000000Y-78780000D03*
%TD*%
D14*
%TO.P,D1,1,K*%
%TO.N,GND*%
X136409666Y-98840016D03*
D15*
%TO.P,D1,2,A*%
%TO.N,Net-(D1-Pad2)*%
X136409666Y-96300016D03*
%TD*%
D16*
%TO.P,C1,1*%
%TO.N,Net-(C1-Pad1)*%
X147270000Y-96520000D03*
%TO.P,C1,2*%
%TO.N,GND*%
X145270000Y-96520000D03*
%TD*%
D17*
%TO.P,J1,1,Pin_1*%
%TO.N,+9V*%
X125550000Y-96820000D03*
D18*
%TO.P,J1,2,Pin_2*%
%TO.N,GND*%
X127550000Y-96820000D03*
%TD*%
D19*
%TO.N,Net-(C1-Pad1)*%
X147270000Y-96520000D02*
X147270000Y-88950000D01*
X161980000Y-81755000D02*
X154835000Y-88900000D01*
X147270000Y-88950000D02*
X147320000Y-88900000D01*
X154835000Y-88900000D02*
X147320000Y-88900000D01*
%TO.N,GND*%
X145270000Y-96520000D02*
X142949984Y-98840016D01*
X134389650Y-96820000D02*
X136409666Y-98840016D01*
X127550000Y-96820000D02*
X134389650Y-96820000D01*
X142949984Y-98840016D02*
X136409666Y-98840016D01*
%TO.N,Net-(D1-Pad2)*%
X134400016Y-96300016D02*
X136409666Y-96300016D01*
X134940000Y-94340000D02*
X134940000Y-94480000D01*
X127000000Y-88900000D02*
X134400016Y-96300016D01*
%TO.N,+9V*%
X125475000Y-96745000D02*
X125550000Y-96820000D01*
X125475000Y-80305000D02*
X125475000Y-96745000D01*
X127000000Y-78780000D02*
X125475000Y-80305000D01*
%TO.N,Net-(R2-Pad1)*%
X153805000Y-77580000D02*
X157980000Y-81755000D01*
X148520000Y-77580000D02*
X153805000Y-77580000D01*
X147320000Y-78780000D02*
X148520000Y-77580000D01*
%TD*%
M02*
