%TF.GenerationSoftware,KiCad,Pcbnew,(6.0.10)*%
%TF.CreationDate,2023-03-03T00:14:05-08:00*%
%TF.ProjectId,ex 2,65782032-2e6b-4696-9361-645f70636258,rev?*%
%TF.SameCoordinates,Original*%
%TF.FileFunction,Copper,L2,Bot*%
%TF.FilePolarity,Positive*%
%FSLAX46Y46*%
G04 Gerber Fmt 4.6, Leading zero omitted, Abs format (unit mm)*
G04 Created by KiCad (PCBNEW (6.0.10)) date 2023-03-03 00:14:05*
%MOMM*%
%LPD*%
G01*
G04 APERTURE LIST*
%TA.AperFunction,ComponentPad*%
%ADD10R,3.000000X3.000000*%
%TD*%
%TA.AperFunction,ComponentPad*%
%ADD11C,3.000000*%
%TD*%
%TA.AperFunction,ViaPad*%
%ADD12C,0.800000*%
%TD*%
%TA.AperFunction,Conductor*%
%ADD13C,0.250000*%
%TD*%
G04 APERTURE END LIST*
D10*
%TO.P,J1,1,Pin_1*%
%TO.N,+9V*%
X134620000Y-83820000D03*
D11*
%TO.P,J1,2,Pin_2*%
%TO.N,GND*%
X134620000Y-78740000D03*
%TD*%
D12*
%TO.N,/pin_2*%
X154305000Y-81915000D03*
X144780000Y-78740000D03*
%TO.N,GND*%
X139700000Y-88900000D03*
X137160000Y-81280000D03*
%TO.N,Net-(C2-Pad1)*%
X152400000Y-83820000D03*
X139700000Y-86360000D03*
X149860000Y-96520000D03*
X142240000Y-81280000D03*
%TO.N,+9V*%
X152400000Y-86360000D03*
X152400000Y-76200000D03*
%TO.N,/pin_7*%
X154940000Y-78740000D03*
X157480000Y-73660000D03*
%TO.N,/pin_3*%
X147320000Y-88900000D03*
X144780000Y-81369500D03*
%TD*%
D13*
%TO.N,/pin_2*%
X151130000Y-78740000D02*
X154305000Y-81915000D01*
X144780000Y-78740000D02*
X151130000Y-78740000D01*
%TO.N,GND*%
X137160000Y-86360000D02*
X139700000Y-88900000D01*
X137160000Y-81280000D02*
X137160000Y-86360000D01*
%TO.N,Net-(C2-Pad1)*%
X149860000Y-86360000D02*
X152400000Y-83820000D01*
X149860000Y-96520000D02*
X149860000Y-86360000D01*
X142240000Y-83820000D02*
X139700000Y-86360000D01*
X142240000Y-81280000D02*
X142240000Y-83820000D01*
%TO.N,+9V*%
X152400000Y-86360000D02*
X160020000Y-78740000D01*
X157480000Y-71120000D02*
X152400000Y-76200000D01*
X160020000Y-78740000D02*
X160020000Y-71120000D01*
X160020000Y-71120000D02*
X157480000Y-71120000D01*
%TO.N,/pin_7*%
X154940000Y-78740000D02*
X157480000Y-76200000D01*
X157480000Y-76200000D02*
X157480000Y-73660000D01*
%TO.N,/pin_3*%
X144780000Y-81369500D02*
X144780000Y-86360000D01*
X144780000Y-86360000D02*
X147320000Y-88900000D01*
%TD*%
M02*
